<svg width="22" height="22" viewBox="0 0 22 22" fill="none" xmlns="http://www.w3.org/2000/svg">
<rect width="22" height="22" rx="11" fill="#00A95D"/>
<g clip-path="url(#clip0_6233_6443)">
<path d="M16.6959 10.7889V11.3792C16.6951 12.7629 16.247 14.1093 15.4185 15.2175C14.59 16.3258 13.4255 17.1365 12.0986 17.5289C10.7717 17.9212 9.35346 17.8741 8.0555 17.3946C6.75754 16.915 5.64937 16.0288 4.89625 14.868C4.14313 13.7072 3.78541 12.334 3.87646 10.9533C3.9675 9.57263 4.50242 8.25834 5.40145 7.20649C6.30047 6.15464 7.51542 5.42157 8.8651 5.11663C10.2148 4.81169 11.6269 4.9512 12.8908 5.51437M16.6959 6.24587L10.2792 12.669L8.35422 10.744" stroke="white" stroke-width="1.28333" stroke-linecap="round" stroke-linejoin="round"/>
</g>
<defs>
<clipPath id="clip0_6233_6443">
<rect width="15.4" height="15.4" fill="white" transform="translate(2.5791 3.6792)"/>
</clipPath>
</defs>
</svg>
