<svg width="14" height="16" viewBox="0 0 14 16" fill="none" xmlns="http://www.w3.org/2000/svg">
<path d="M4.5 1.5V0H9V1.5H4.5ZM6 9.75H7.5V5.25H6V9.75ZM4.134 15.216C3.3155 14.8595 2.6 14.375 1.9875 13.7625C1.375 13.15 0.890751 12.4343 0.534751 11.6153C0.178751 10.7963 0.000501049 9.9245 1.04895e-06 9C-0.000498951 8.0755 0.177751 7.2035 0.534751 6.384C0.891751 5.5645 1.376 4.849 1.9875 4.2375C2.599 3.626 3.31475 3.14175 4.13475 2.78475C4.95475 2.42775 5.8265 2.2495 6.75 2.25C7.525 2.25 8.26875 2.375 8.98125 2.625C9.69375 2.875 10.3625 3.2375 10.9875 3.7125L12.0375 2.6625L13.0875 3.7125L12.0375 4.7625C12.5125 5.3875 12.875 6.05625 13.125 6.76875C13.375 7.48125 13.5 8.225 13.5 9C13.5 9.925 13.3218 10.797 12.9653 11.616C12.6088 12.435 12.1245 13.1505 11.5125 13.7625C10.9005 14.3745 10.1848 14.859 9.36525 15.216C8.54575 15.573 7.674 15.751 6.75 15.75C5.826 15.749 4.954 15.571 4.134 15.216ZM10.4625 12.7125C11.4875 11.6875 12 10.45 12 9C12 7.55 11.4875 6.3125 10.4625 5.2875C9.4375 4.2625 8.2 3.75 6.75 3.75C5.3 3.75 4.0625 4.2625 3.0375 5.2875C2.0125 6.3125 1.5 7.55 1.5 9C1.5 10.45 2.0125 11.6875 3.0375 12.7125C4.0625 13.7375 5.3 14.25 6.75 14.25C8.2 14.25 9.4375 13.7375 10.4625 12.7125Z" fill="#E70606"/>
</svg>
