<svg width="22" height="22" viewBox="0 0 22 22" fill="none" xmlns="http://www.w3.org/2000/svg">
<rect width="22" height="22" rx="10.3063" fill="#595858" fill-opacity="0.5"/>
<path d="M13 5.00008H9V3.66675H13V5.00008ZM12.4667 12.6667V12.8267C12 13.2267 11.6667 13.8267 11.6667 14.4667V16.8001C11.6667 17.0801 11.7267 17.3534 11.8267 17.6067C11.5533 17.6401 11.28 17.6667 11 17.6667C9.4087 17.6667 7.88258 17.0346 6.75736 15.9094C5.63214 14.7842 5 13.258 5 11.6667C5 10.0754 5.63214 8.54933 6.75736 7.42411C7.88258 6.29889 9.4087 5.66675 11 5.66675C12.4133 5.66675 13.7133 6.16008 14.7467 7.00008L15.6933 6.04008C16.0333 6.33341 16.3333 6.64008 16.6333 6.98008L15.6867 7.92675C16.14 8.49341 16.4867 9.14675 16.7133 9.85341C16.38 9.74008 16.0333 9.66675 15.6667 9.66675C13.9333 9.66675 12.4667 11.0401 12.4667 12.6667ZM11.6667 7.66675H10.3333V12.3334H11.6667V7.66675ZM18.3333 14.5334V16.8667C18.3333 17.2667 17.9333 17.6667 17.4667 17.6667H13.8C13.4 17.6667 13 17.2667 13 16.8001V14.4667C13 14.0667 13.4 13.6667 13.8 13.6667V12.6667C13.8 11.7334 14.7333 11.0001 15.6667 11.0001C16.6 11.0001 17.5333 11.7334 17.5333 12.6667V13.6667C17.9333 13.6667 18.3333 14.0667 18.3333 14.5334ZM16.6667 12.6667C16.6667 12.1334 16.2 11.8001 15.6667 11.8001C15.1333 11.8001 14.6667 12.1334 14.6667 12.6667V13.6667H16.6667V12.6667Z" fill="white"/>
</svg>
