<svg width="17" height="18" viewBox="0 0 17 18" fill="none" xmlns="http://www.w3.org/2000/svg">
<path d="M10 1.66667H5V0H10V1.66667ZM9.33333 11.25V11.45C8.75 11.95 8.33333 12.7 8.33333 13.5V16.4167C8.33333 16.7667 8.40833 17.1083 8.53333 17.425C8.19167 17.4667 7.85 17.5 7.5 17.5C5.51088 17.5 3.60322 16.7098 2.1967 15.3033C0.790176 13.8968 0 11.9891 0 10C0 8.01088 0.790176 6.10322 2.1967 4.6967C3.60322 3.29018 5.51088 2.5 7.5 2.5C9.26667 2.5 10.8917 3.11667 12.1833 4.16667L13.3667 2.96667C13.7917 3.33333 14.1667 3.71667 14.5417 4.14167L13.3583 5.325C13.925 6.03333 14.3583 6.85 14.6417 7.73333C14.225 7.59167 13.7917 7.5 13.3333 7.5C11.1667 7.5 9.33333 9.21667 9.33333 11.25ZM8.33333 5H6.66667V10.8333H8.33333V5ZM16.6667 13.5833V16.5C16.6667 17 16.1667 17.5 15.5833 17.5H11C10.5 17.5 10 17 10 16.4167V13.5C10 13 10.5 12.5 11 12.5V11.25C11 10.0833 12.1667 9.16667 13.3333 9.16667C14.5 9.16667 15.6667 10.0833 15.6667 11.25V12.5C16.1667 12.5 16.6667 13 16.6667 13.5833ZM14.5833 11.25C14.5833 10.5833 14 10.1667 13.3333 10.1667C12.6667 10.1667 12.0833 10.5833 12.0833 11.25V12.5H14.5833V11.25Z" fill="white"/>
</svg>
