<svg width="18" height="20" viewBox="0 0 18 20" fill="none" xmlns="http://www.w3.org/2000/svg">
<path d="M17.6736 12.5764L15.8125 10.7154V8.25C15.8104 6.54626 15.1766 4.90383 14.0337 3.6403C12.8908 2.37677 11.32 1.58189 9.625 1.40937V0H8.25V1.40937C6.55502 1.58189 4.98421 2.37677 3.84132 3.6403C2.69842 4.90383 2.06463 6.54626 2.0625 8.25V10.7154L0.201437 12.5764C0.0724973 12.7053 3.89382e-05 12.8802 0 13.0625V15.125C0 15.3073 0.0724328 15.4822 0.201364 15.6111C0.330295 15.7401 0.505164 15.8125 0.6875 15.8125H5.5V16.3467C5.48474 17.219 5.79205 18.0662 6.36299 18.7258C6.93394 19.3854 7.72831 19.811 8.59375 19.921C9.07168 19.9684 9.55425 19.9152 10.0104 19.7649C10.4666 19.6146 10.8862 19.3705 11.2424 19.0483C11.5985 18.7261 11.8833 18.3329 12.0783 17.894C12.2734 17.4551 12.3745 16.9803 12.375 16.5V15.8125H17.1875C17.3698 15.8125 17.5447 15.7401 17.6736 15.6111C17.8026 15.4822 17.875 15.3073 17.875 15.125V13.0625C17.875 12.8802 17.8025 12.7053 17.6736 12.5764ZM11 16.5C11 17.047 10.7827 17.5716 10.3959 17.9584C10.0091 18.3452 9.48451 18.5625 8.9375 18.5625C8.39049 18.5625 7.86589 18.3452 7.47909 17.9584C7.0923 17.5716 6.875 17.047 6.875 16.5V15.8125H11V16.5ZM16.5 14.4375H1.375V13.3471L3.23606 11.4861C3.365 11.3572 3.43746 11.1823 3.4375 11V8.25C3.4375 6.79131 4.01696 5.39236 5.04841 4.36091C6.07986 3.32946 7.47881 2.75 8.9375 2.75C10.3962 2.75 11.7951 3.32946 12.8266 4.36091C13.858 5.39236 14.4375 6.79131 14.4375 8.25V11C14.4375 11.1823 14.51 11.3572 14.6389 11.4861L16.5 13.3471V14.4375Z" fill="white"/>
</svg>
