<svg width="356" height="102" viewBox="0 0 356 102" fill="none" xmlns="http://www.w3.org/2000/svg">
<path d="M160.119 50H146.28C144.859 50 143.496 49.4142 142.492 48.3717C141.487 47.3292 140.923 45.9151 140.923 44.4407V26.9363H160.119V50Z" fill="white"/>
<path d="M183.78 44.4407C183.779 45.9151 183.215 47.3292 182.211 48.3717C181.206 49.4142 179.843 50 178.423 50H164.583V26.9363H183.78V44.4407Z" fill="white"/>
<path fill-rule="evenodd" clip-rule="evenodd" d="M271.497 22.7478C273.861 22.7478 275.9 23.2546 277.615 24.2692C279.34 25.2737 280.669 26.6841 281.603 28.5003C282.536 30.3062 283.002 32.4168 283.002 34.8316C283.002 37.2259 282.536 39.3313 281.603 41.1473C280.669 42.9533 279.34 44.3638 277.615 45.3784C275.9 46.3828 273.861 46.8849 271.497 46.8849C269.133 46.8849 267.088 46.3828 265.363 45.3784C263.649 44.3638 262.325 42.9533 261.391 41.1473C260.458 39.3312 259.991 37.226 259.991 34.8316C259.991 32.4168 260.458 30.3062 261.391 28.5003C262.325 26.6842 263.649 25.2737 265.363 24.2692C267.088 23.2547 269.133 22.7478 271.497 22.7478ZM271.527 27.6935C270.442 27.6936 269.528 28.0031 268.788 28.622C268.057 29.2408 267.504 30.083 267.129 31.1483C266.764 32.2135 266.581 33.4261 266.581 34.7856C266.581 36.145 266.764 37.3576 267.129 38.4229C267.504 39.4881 268.057 40.3303 268.788 40.9492C269.528 41.5579 270.442 41.8627 271.527 41.8628C272.603 41.8628 273.501 41.5579 274.221 40.9492C274.941 40.3303 275.484 39.4881 275.849 38.4229C276.225 37.3576 276.413 36.145 276.413 34.7856C276.413 33.4261 276.225 32.2135 275.849 31.1483C275.484 30.083 274.941 29.2408 274.221 28.622C273.501 28.0031 272.603 27.6935 271.527 27.6935Z" fill="white"/>
<path fill-rule="evenodd" clip-rule="evenodd" d="M298.637 22.7478C301.001 22.7478 303.041 23.2546 304.755 24.2692C306.48 25.2737 307.81 26.6841 308.743 28.5003C309.676 30.3062 310.143 32.4168 310.143 34.8316C310.143 37.2259 309.676 39.3313 308.743 41.1473C307.81 42.9533 306.48 44.3638 304.755 45.3784C303.041 46.3828 301.001 46.8849 298.637 46.8849C296.273 46.8849 294.229 46.3828 292.504 45.3784C290.789 44.3638 289.465 42.9533 288.532 41.1473C287.598 39.3312 287.131 37.226 287.131 34.8316C287.131 32.4168 287.598 30.3062 288.532 28.5003C289.465 26.6842 290.789 25.2737 292.504 24.2692C294.229 23.2547 296.273 22.7478 298.637 22.7478ZM298.668 27.6935C297.582 27.6936 296.669 28.0031 295.928 28.622C295.198 29.2408 294.645 30.083 294.27 31.1483C293.904 32.2135 293.722 33.4261 293.722 34.7856C293.722 36.145 293.904 37.3576 294.27 38.4229C294.645 39.4881 295.198 40.3303 295.928 40.9492C296.669 41.5579 297.582 41.8627 298.668 41.8628C299.743 41.8628 300.641 41.5579 301.362 40.9492C302.082 40.3303 302.625 39.4881 302.99 38.4229C303.365 37.3576 303.553 36.145 303.553 34.7856C303.553 33.4261 303.365 32.2135 302.99 31.1483C302.625 30.083 302.082 29.2408 301.362 28.622C300.641 28.0031 299.743 27.6935 298.668 27.6935Z" fill="white"/>
<path fill-rule="evenodd" clip-rule="evenodd" d="M399.168 26.9788H399.366C399.651 26.3498 400.062 25.7104 400.599 25.0611C401.147 24.4016 401.857 23.8535 402.73 23.4172C403.613 22.9708 404.708 22.7478 406.017 22.7478C407.721 22.7478 409.294 23.1939 410.735 24.0867C412.176 24.9694 413.327 26.3041 414.19 28.0898C415.052 29.8653 415.483 32.0923 415.483 34.7707C415.483 37.3782 415.062 39.5801 414.22 41.3759C413.388 43.1614 412.252 44.516 410.811 45.4392C409.381 46.3523 407.778 46.8092 406.002 46.8092C404.744 46.8092 403.673 46.601 402.791 46.1851C401.918 45.7692 401.203 45.2466 400.645 44.6176C400.087 43.9784 399.661 43.3337 399.366 42.6843H399.077V46.4285H392.686V15.2602H399.168V26.9788ZM403.948 27.9065C402.893 27.9065 401.999 28.1857 401.269 28.7437C400.548 29.3017 399.995 30.0932 399.61 31.1178C399.224 32.1426 399.032 33.3503 399.032 34.7403C399.032 36.1302 399.224 37.3427 399.61 38.3776C399.995 39.4124 400.554 40.2187 401.284 40.797C402.015 41.3652 402.903 41.6498 403.948 41.6498C405.003 41.6497 405.896 41.3604 406.626 40.7822C407.357 40.1937 407.91 39.382 408.285 38.3472C408.671 37.3022 408.863 36.0998 408.863 34.7403C408.863 33.3909 408.675 32.2034 408.3 31.1787C407.924 30.1541 407.372 29.3524 406.641 28.7741C405.911 28.1959 405.013 27.9066 403.948 27.9065Z" fill="white"/>
<path d="M371.53 36.7797C371.54 38.1595 371.91 39.2504 372.641 40.0519C373.371 40.8534 374.351 41.2542 375.578 41.2542C376.359 41.2542 377.09 41.0764 377.77 40.7213C378.45 40.3561 378.998 39.8181 379.414 39.1079C379.84 38.3978 380.047 37.5202 380.037 36.4754V23.0521H386.521V46.4285H380.296V42.1826H380.053C379.525 43.5522 378.647 44.6526 377.419 45.4845C376.202 46.3165 374.716 46.7328 372.961 46.7328C371.398 46.7328 370.023 46.3778 368.836 45.6678C367.649 44.9576 366.721 43.9478 366.051 42.6391C365.392 41.3302 365.056 39.7623 365.046 37.936V23.0521H371.53V36.7797Z" fill="white"/>
<path fill-rule="evenodd" clip-rule="evenodd" d="M222.653 46.4285H215.591L213.283 39.3209H202.03L199.718 46.4285H192.656L203.416 15.2602H211.909L222.653 46.4285ZM203.704 34.177H211.613L207.784 22.3826H207.541L203.704 34.177Z" fill="white"/>
<path d="M232.642 38.7583H232.855L236.629 23.0521H243.067L246.902 38.667H247.1L250.661 23.0521H257.205L250.859 46.4285H243.995L239.977 31.7271H239.688L235.67 46.4285H228.822L222.46 23.0521H229.019L232.642 38.7583Z" fill="white"/>
<path d="M324.332 13.7989C325.326 13.7989 326.234 13.8745 327.056 14.0267C327.888 14.1789 328.507 14.3161 328.913 14.4379L327.756 19.3079C327.503 19.2268 327.188 19.151 326.813 19.08C326.448 19.009 326.072 18.9732 325.686 18.9732C324.733 18.9732 324.068 19.1964 323.693 19.6426C323.317 20.0789 323.129 20.6932 323.129 21.4846V23.0521H327.787V27.9221H323.129V46.4285H316.662V27.9221H313.359V23.0521H316.662V21.3629C316.662 19.6685 316.991 18.2628 317.651 17.1468C318.32 16.0308 319.234 15.194 320.39 14.636C321.547 14.078 322.861 13.7989 324.332 13.7989Z" fill="white"/>
<path d="M338.926 28.1202H352.304V15.2602H358.878V46.4285H352.304V33.5529H338.926V46.4285H332.336V15.2602H338.926V28.1202Z" fill="white"/>
<path d="M151.963 0.0669693C152.656 -0.0939149 153.383 0.0377897 153.983 0.432823L162.351 5.94044L170.723 0.432823C171.323 0.0382812 172.049 -0.0928159 172.742 0.0683846C173.435 0.229609 174.038 0.670084 174.419 1.29262C174.799 1.91523 174.926 2.66938 174.77 3.38867C174.615 4.10804 174.19 4.73412 173.59 5.12877L170.169 7.37839H181.994C184.573 7.37847 187.351 9.19085 187.351 12.2187V17.4666C187.351 20.2906 184.937 22.059 182.512 22.2814L182.576 22.3034H164.583V12.5081H160.119V22.3034H142.127L142.187 22.285C139.769 22.0625 137.351 20.2906 137.351 17.4666V12.2187C137.352 9.19086 140.13 7.37848 142.708 7.37839H154.533L151.112 5.12877C150.512 4.73369 150.088 4.10755 149.933 3.38796C149.778 2.66831 149.904 1.91386 150.285 1.2912C150.666 0.668535 151.269 0.227893 151.963 0.0669693Z" fill="white"/>
<path d="M190.054 10.8106H421.135V49.9998H190.054V10.8106Z" fill="#DB4404"/>
<path d="M59.8482 92H49.607C48.5557 92 47.5473 91.5665 46.8039 90.7951C46.0605 90.0236 45.643 88.9771 45.6429 87.8861V74.9329H59.8482V92Z" fill="white"/>
<path d="M77.3568 87.8861C77.3567 88.9771 76.9392 90.0236 76.1958 90.7951C75.4524 91.5665 74.444 92 73.3927 92H63.1515V74.9329H77.3568V87.8861Z" fill="white"/>
<path fill-rule="evenodd" clip-rule="evenodd" d="M142.267 71.8334C144.017 71.8334 145.526 72.2084 146.795 72.9592C148.071 73.7025 149.055 74.7462 149.746 76.0902C150.437 77.4266 150.782 78.9885 150.782 80.7754C150.782 82.5472 150.437 84.1051 149.746 85.449C149.055 86.7855 148.071 87.8292 146.795 88.58C145.526 89.3233 144.017 89.6949 142.267 89.6949C140.518 89.6948 139.005 89.3233 137.729 88.58C136.46 87.8292 135.48 86.7855 134.79 85.449C134.099 84.1051 133.753 82.5472 133.753 80.7754C133.753 78.9884 134.099 77.4266 134.79 76.0902C135.48 74.7463 136.46 73.7025 137.729 72.9592C139.005 72.2085 140.518 71.8334 142.267 71.8334ZM142.29 75.4932C141.487 75.4932 140.811 75.7223 140.263 76.1803C139.722 76.6382 139.313 77.2615 139.035 78.0497C138.765 78.838 138.63 79.7353 138.63 80.7413C138.63 81.7473 138.765 82.6446 139.035 83.4329C139.313 84.2212 139.722 84.8444 140.263 85.3024C140.811 85.7529 141.487 85.9784 142.29 85.9784C143.086 85.9784 143.75 85.7529 144.284 85.3024C144.817 84.8444 145.218 84.2212 145.488 83.4329C145.766 82.6446 145.905 81.7473 145.905 80.7413C145.905 79.7353 145.766 78.838 145.488 78.0497C145.218 77.2615 144.817 76.6382 144.284 76.1803C143.75 75.7223 143.086 75.4932 142.29 75.4932Z" fill="white"/>
<path fill-rule="evenodd" clip-rule="evenodd" d="M162.351 71.8334C164.101 71.8334 165.61 72.2084 166.879 72.9592C168.155 73.7025 169.139 74.7462 169.83 76.0902C170.52 77.4266 170.866 78.9885 170.866 80.7754C170.866 82.5472 170.52 84.1051 169.83 85.449C169.139 86.7854 168.155 87.8292 166.879 88.58C165.61 89.3233 164.101 89.6949 162.351 89.6949C160.602 89.6948 159.089 89.3233 157.813 88.58C156.544 87.8292 155.564 86.7855 154.874 85.449C154.183 84.1051 153.837 82.5472 153.837 80.7754C153.837 78.9884 154.183 77.4266 154.874 76.0902C155.564 74.7463 156.544 73.7025 157.813 72.9592C159.089 72.2085 160.602 71.8334 162.351 71.8334ZM162.374 75.4932C161.571 75.4932 160.895 75.7223 160.347 76.1803C159.806 76.6382 159.397 77.2615 159.119 78.0497C158.849 78.838 158.714 79.7353 158.714 80.7413C158.714 81.7473 158.849 82.6446 159.119 83.4329C159.397 84.2212 159.806 84.8444 160.347 85.3024C160.895 85.7529 161.571 85.9784 162.374 85.9784C163.17 85.9784 163.834 85.7529 164.367 85.3024C164.9 84.8444 165.302 84.2212 165.572 83.4329C165.85 82.6446 165.989 81.7473 165.989 80.7413C165.989 79.7353 165.85 78.838 165.572 78.0497C165.302 77.2615 164.9 76.6382 164.367 76.1803C163.834 75.7223 163.17 75.4932 162.374 75.4932Z" fill="white"/>
<path fill-rule="evenodd" clip-rule="evenodd" d="M236.745 74.9643H236.891C237.101 74.4989 237.405 74.0257 237.803 73.5452C238.209 73.0572 238.734 72.6516 239.38 72.3287C240.033 71.9984 240.844 71.8334 241.812 71.8334C243.074 71.8334 244.238 72.1635 245.304 72.8241C246.37 73.4773 247.222 74.465 247.86 75.7865C248.498 77.1004 248.817 78.7483 248.817 80.7303C248.817 82.6599 248.506 84.2893 247.883 85.6182C247.267 86.9395 246.426 87.9418 245.36 88.625C244.302 89.3007 243.115 89.6388 241.801 89.6388C240.87 89.6388 240.078 89.4848 239.425 89.177C238.78 88.8692 238.25 88.4825 237.837 88.0171C237.424 87.544 237.109 87.0669 236.891 86.5864H236.677V89.3571H231.947V66.2925H236.745V74.9643ZM240.281 75.6508C239.5 75.6508 238.839 75.8574 238.299 76.2703C237.766 76.6832 237.357 77.269 237.071 78.0272C236.786 78.7855 236.643 79.6792 236.643 80.7078C236.643 81.7364 236.786 82.6336 237.071 83.3994C237.357 84.1652 237.77 84.7619 238.31 85.1898C238.851 85.6103 239.508 85.8208 240.281 85.8208C241.062 85.8208 241.723 85.6067 242.263 85.1788C242.804 84.7434 243.213 84.1427 243.491 83.3769C243.776 82.6036 243.919 81.7139 243.919 80.7078C243.919 79.7092 243.78 78.8306 243.502 78.0722C243.224 77.314 242.815 76.7208 242.274 76.2928C241.734 75.865 241.069 75.6509 240.281 75.6508Z" fill="white"/>
<path d="M216.292 82.217C216.299 83.238 216.574 84.0453 217.114 84.6384C217.655 85.2315 218.379 85.5281 219.288 85.5281C219.866 85.5281 220.407 85.3966 220.91 85.1338C221.413 84.8635 221.818 84.4654 222.126 83.9398C222.441 83.4144 222.595 82.765 222.587 81.9918V72.0585H227.385V89.3571H222.779V86.2151H222.599C222.208 87.2286 221.559 88.0429 220.65 88.6585C219.749 89.2742 218.65 89.5823 217.351 89.5823C216.195 89.5823 215.177 89.3196 214.299 88.7942C213.421 88.2686 212.733 87.5214 212.238 86.5529C211.75 85.5844 211.502 84.4241 211.494 83.0727V72.0585H216.292V82.217Z" fill="white"/>
<path fill-rule="evenodd" clip-rule="evenodd" d="M106.123 89.3571H100.897L99.1897 84.0975H90.8625L89.1511 89.3571H83.9255L91.8878 66.2925H98.1722L106.123 89.3571ZM92.1009 80.291H97.9538L95.1203 71.5632H94.9402L92.1009 80.291Z" fill="white"/>
<path d="M113.515 83.6812H113.673L116.465 72.0585H121.229L124.067 83.6136H124.214L126.849 72.0585H131.692L126.995 89.3571H121.917L118.943 78.4781H118.729L115.756 89.3571H110.688L105.98 72.0585H110.834L113.515 83.6812Z" fill="white"/>
<path d="M181.365 65.2112C182.101 65.2112 182.773 65.2672 183.382 65.3798C183.997 65.4924 184.455 65.5939 184.756 65.684L183.899 69.2879C183.712 69.2278 183.479 69.1718 183.201 69.1192C182.931 69.0667 182.653 69.0402 182.368 69.0402C181.662 69.0402 181.17 69.2053 180.893 69.5355C180.615 69.8584 180.476 70.313 180.476 70.8986V72.0585H183.922V75.6624H180.476V89.3571H175.689V75.6624H173.246V72.0585H175.689V70.8086C175.689 69.5547 175.934 68.5145 176.422 67.6886C176.917 66.8628 177.593 66.2436 178.449 65.8307C179.305 65.4177 180.277 65.2112 181.365 65.2112Z" fill="white"/>
<path d="M192.165 75.809H202.065V66.2925H206.929V89.3571H202.065V79.8291H192.165V89.3571H187.289V66.2925H192.165V75.809Z" fill="white"/>
<path d="M53.8125 55.0496C54.3257 54.9305 54.8636 55.028 55.3076 55.3203L61.4998 59.3959L67.6947 55.3203C68.1387 55.0283 68.6763 54.9313 69.1892 55.0506C69.7021 55.1699 70.1484 55.4959 70.4298 55.9565C70.7112 56.4173 70.805 56.9753 70.6901 57.5076C70.5751 58.04 70.2606 58.5033 69.8166 58.7953L67.2852 60.46H76.0356C77.9436 60.4601 79.9996 61.8012 79.9997 64.0418V67.9253C79.9997 70.0151 78.2133 71.3236 76.4189 71.4883L76.466 71.5045H63.1515V64.256H59.8482V71.5045H46.5337L46.5782 71.4909C44.789 71.3262 43 70.0151 43 67.9253V64.0418C43 61.8012 45.056 60.4601 46.9641 60.46H55.7144L53.1831 58.7953C52.7391 58.5029 52.4249 58.0396 52.3101 57.5071C52.1954 56.9745 52.2892 56.4163 52.5709 55.9555C52.8527 55.4947 53.2993 55.1686 53.8125 55.0496Z" fill="white"/>
<path d="M0 43H80V102H0V43Z" fill="#D74303"/>
</svg>
