<svg width="22" height="22" viewBox="0 0 22 22" fill="none" xmlns="http://www.w3.org/2000/svg">
<rect width="22" height="22" rx="11" fill="#FFC000"/>
<path d="M10.7988 3.81702C8.94231 3.81702 7.16184 4.55451 5.84908 5.86727C4.53633 7.18002 3.79883 8.9605 3.79883 10.817C3.79883 12.6735 4.53633 14.454 5.84908 15.7668C7.16184 17.0795 8.94231 17.817 10.7988 17.817C12.6553 17.817 14.4358 17.0795 15.7486 15.7668C17.0613 14.454 17.7988 12.6735 17.7988 10.817C17.7988 8.9605 17.0613 7.18002 15.7486 5.86727C14.4358 4.55451 12.6553 3.81702 10.7988 3.81702ZM11.4551 7.31702V11.692H10.1426V7.31702H11.4551ZM11.4551 13.0045V14.317H10.1426V13.0045H11.4551Z" fill="white"/>
</svg>
