<svg width="212" height="212" viewBox="0 0 212 212" fill="none" xmlns="http://www.w3.org/2000/svg">
<path fill-rule="evenodd" clip-rule="evenodd" d="M48.7344 46.2993C48.7344 32.475 60.287 21.9314 73.7031 21.9314H135.858C149.274 21.9314 160.827 32.475 160.827 46.2993V154.736H141.332V46.2993C141.332 43.9739 139.255 41.4257 135.858 41.4257H73.7031C70.306 41.4257 68.2287 43.9739 68.2287 46.2993V154.736H48.7344V46.2993Z" fill="url(#paint0_linear_5968_10626)" fill-opacity="0.6"/>
<circle cx="105.998" cy="96.2534" r="42.6438" fill="#43A047"/>
<circle cx="105.998" cy="96.2534" r="41.5838" stroke="white" stroke-opacity="0.2" stroke-width="2.12001"/>
<path d="M93.8154 96.0626L101.711 104.909C101.831 105.044 102.047 105.045 102.169 104.912L118.183 87.4968" stroke="white" stroke-width="4.77001" stroke-linecap="round"/>
<path fill-rule="evenodd" clip-rule="evenodd" d="M212.001 162.046H0V154.736H212.001V162.046Z" fill="url(#paint1_linear_5968_10626)" fill-opacity="0.6"/>
<path fill-rule="evenodd" clip-rule="evenodd" d="M162.046 176.668H49.9541V169.357H162.046V176.668Z" fill="url(#paint2_linear_5968_10626)" fill-opacity="0.6"/>
<path fill-rule="evenodd" clip-rule="evenodd" d="M135.241 191.289H76.7578V183.979H135.241V191.289Z" fill="url(#paint3_linear_5968_10626)" fill-opacity="0.6"/>
<path d="M28.1835 47.0488L32.8365 51.7826L39.4589 51.3319L34.7251 55.9849L35.1758 62.6073L30.5229 57.8734L23.9004 58.3242L28.6343 53.6712L28.1835 47.0488Z" fill="#43A047"/>
<path d="M180.322 60.9202L181.638 64.4774L185.195 65.7937L181.638 67.1101L180.322 70.6673L179.006 67.1101L175.448 65.7937L179.006 64.4774L180.322 60.9202Z" fill="#43A047"/>
<path d="M116.966 17.0579L118.283 20.6151L121.84 21.9314L118.283 23.2477L116.966 26.805L115.65 23.2477L112.093 21.9314L115.65 20.6151L116.966 17.0579Z" fill="#43A047"/>
<path d="M49.0295 148.886L49.1769 152.676L52.1501 155.032L48.3599 155.179L46.0047 158.152L45.8573 154.362L42.8841 152.007L46.6742 151.859L49.0295 148.886Z" fill="#43A047"/>
<path d="M27.9142 184.446L28.0173 187.096L30.0961 188.743L27.446 188.846L25.7993 190.925L25.6962 188.275L23.6174 186.628L26.2674 186.525L27.9142 184.446Z" fill="#43A047"/>
<path d="M188.957 159.022L187.82 165.562L192.045 170.681L185.505 169.545L180.385 173.769L181.522 167.23L177.297 162.11L183.837 163.246L188.957 159.022Z" fill="#43A047"/>
<defs>
<linearGradient id="paint0_linear_5968_10626" x1="105.415" y1="-9.13766" x2="105.415" y2="226.012" gradientUnits="userSpaceOnUse">
<stop stop-color="#DCE5EE"/>
<stop offset="1" stop-color="#DCE5EE" stop-opacity="0"/>
</linearGradient>
<linearGradient id="paint1_linear_5968_10626" x1="0" y1="158.391" x2="212.001" y2="158.391" gradientUnits="userSpaceOnUse">
<stop stop-color="#DCE5EE" stop-opacity="0"/>
<stop offset="0.510417" stop-color="#DCE5EE"/>
<stop offset="1" stop-color="#DCE5EE" stop-opacity="0"/>
</linearGradient>
<linearGradient id="paint2_linear_5968_10626" x1="49.9541" y1="173.012" x2="162.046" y2="173.012" gradientUnits="userSpaceOnUse">
<stop stop-color="#DCE5EE" stop-opacity="0"/>
<stop offset="0.510417" stop-color="#DCE5EE"/>
<stop offset="1" stop-color="#DCE5EE" stop-opacity="0"/>
</linearGradient>
<linearGradient id="paint3_linear_5968_10626" x1="76.7578" y1="187.634" x2="135.241" y2="187.634" gradientUnits="userSpaceOnUse">
<stop stop-color="#DCE5EE" stop-opacity="0"/>
<stop offset="0.510417" stop-color="#DCE5EE"/>
<stop offset="1" stop-color="#DCE5EE" stop-opacity="0"/>
</linearGradient>
</defs>
</svg>
